# xmcd
#
# Track frame offsets:
# 150
# 17583
# 31453
# 46148
# 60164
# 71509
# 87422
# 98600
# 112793
# 122981
# 137257
# 151190
# 162417
#
# Disc length: 2275 seconds
#
#
# Revision: 0
# Processed by: cddbd v1.5.2PL0 Copyright (c) Steve Scherf et al.
# Submitted via: FreeRIP 2.96 
#
DISCID=9408e10d
DTITLE=Dino Rocha - No Rancho do Chamamé
DYEAR=1900
DGENRE=Country
TTITLE0=Caray Piano
TTITLE1=Tu Ventana
TTITLE2=Contigo Vivo Sonhando
TTITLE3=Pobre My Alma
TTITLE4=Arroyo San Juan
TTITLE5=Um Chamamé para Trânsito Cocomarola
TTITLE6=Mi Virgem Querida
TTITLE7=Chê Rancho Cuê
TTITLE8=Lá Gritada
TTITLE9=Lagoa Branca
TTITLE10=Villa Guilhermina
TTITLE11=Quando Estava Contigo
TTITLE12=Três Guris
EXTD=
EXTT0=
EXTT1=
EXTT2=
EXTT3=
EXTT4=
EXTT5=
EXTT6=
EXTT7=
EXTT8=
EXTT9=
EXTT10=
EXTT11=
EXTT12=
PLAYORDER=
